<svg width="49" height="43" viewBox="0 0 49 43" fill="none" xmlns="http://www.w3.org/2000/svg">
<path d="M24.13 0.25C10.94 0.25 0.25 9.24 0.25 20.34C0.25 26.93 4.02 32.77 9.84 36.44C11.49 39.61 17.26 42 24.13 42C31 42 36.78 39.65 38.39 36.48C44.23 32.77 48 26.93 48 20.34C48 9.24 37.31 0.25 24.13 0.25Z" fill="#CCCCCC" stroke="#1A1A1A" stroke-width="0.5" stroke-miterlimit="10"/>
<path d="M24.1299 41.95C32.254 41.95 38.8399 38.6727 38.8399 34.63C38.8399 30.5873 32.254 27.31 24.1299 27.31C16.0058 27.31 9.41992 30.5873 9.41992 34.63C9.41992 38.6727 16.0058 41.95 24.1299 41.95Z" fill="#F7CFB4" stroke="#1A1A1A" stroke-width="0.5" stroke-miterlimit="10"/>
<path d="M3.17 30C5.09912 28.7286 6.68145 26.9971 7.7743 24.9615C8.86716 22.9259 9.43616 20.6504 9.43 18.34C9.43197 16.4473 9.04712 14.5743 8.29909 12.8357C7.55105 11.0972 6.45561 9.52989 5.08 8.22998C2.01329 11.5213 0.290161 15.8416 0.25 20.34C0.257173 23.7763 1.27244 27.1351 3.17 30Z" fill="white"/>
<path d="M5.08 8.22998C2.01329 11.5213 0.290161 15.8416 0.25 20.34C0.260681 23.7758 1.27565 27.1335 3.17 30" stroke="#1A1A1A" stroke-width="0.5" stroke-miterlimit="10"/>
<path d="M43.18 8.22998C41.6629 9.67909 40.4908 11.4506 39.7505 13.4137C39.0101 15.3768 38.7205 17.4811 38.9029 19.5712C39.0853 21.6613 39.7351 23.6836 40.8043 25.4887C41.8735 27.2939 43.3348 28.8356 45.08 30C46.9776 27.1351 47.9929 23.7763 48 20.34C47.9626 15.8429 46.2431 11.5228 43.18 8.22998Z" fill="white"/>
<path d="M45.0799 30C46.9775 27.1351 47.9928 23.7763 47.9999 20.34C47.9625 15.8429 46.243 11.5228 43.1799 8.22998" stroke="#1A1A1A" stroke-width="0.5" stroke-miterlimit="10"/>
<path d="M19.95 36.44C20.7288 36.44 21.36 34.8864 21.36 32.97C21.36 31.0536 20.7288 29.5 19.95 29.5C19.1713 29.5 18.54 31.0536 18.54 32.97C18.54 34.8864 19.1713 36.44 19.95 36.44Z" fill="#1A1A1A"/>
<path d="M19.9501 33.68C20.4195 33.68 20.8001 32.807 20.8001 31.73C20.8001 30.6531 20.4195 29.78 19.9501 29.78C19.4807 29.78 19.1001 30.6531 19.1001 31.73C19.1001 32.807 19.4807 33.68 19.9501 33.68Z" fill="white"/>
<path d="M28.3001 36.33C29.0789 36.33 29.7101 34.7764 29.7101 32.86C29.7101 30.9436 29.0789 29.39 28.3001 29.39C27.5214 29.39 26.8901 30.9436 26.8901 32.86C26.8901 34.7764 27.5214 36.33 28.3001 36.33Z" fill="#1A1A1A"/>
<path d="M28.2999 33.57C28.7694 33.57 29.15 32.697 29.15 31.62C29.15 30.5431 28.7694 29.67 28.2999 29.67C27.8305 29.67 27.45 30.5431 27.45 31.62C27.45 32.697 27.8305 33.57 28.2999 33.57Z" fill="white"/>
<path d="M24.1299 24.69C30.1885 24.69 35.0999 19.7786 35.0999 13.72C35.0999 7.66144 30.1885 2.75 24.1299 2.75C18.0713 2.75 13.1599 7.66144 13.1599 13.72C13.1599 19.7786 18.0713 24.69 24.1299 24.69Z" fill="white"/>
<path d="M18.5779 10.7761V14.0281H21.8298V10.7761H18.5779ZM18.5779 15.1121V17.28H16.4099V9.69214H22.9138V10.7761H23.9978V14.0281H22.9138V15.1121H18.5779ZM25.0818 11.8601H26.1658V10.7761H27.2498V9.69214H30.5017V10.7761H31.5857V11.8601H32.6697V17.28H30.5017V15.1121H27.2498V17.28H25.0818V11.8601ZM28.3337 10.7761V11.8601H27.2498V14.0281H30.5017V11.8601H29.4177V10.7761H28.3337Z" fill="#010101"/>
</svg>
